<?xml version="1.0" standalone="no"?>
<!DOCTYPE svg PUBLIC "-//W3C//DTD SVG 20010904//EN"
 "http://www.w3.org/TR/2001/REC-SVG-20010904/DTD/svg10.dtd">
<svg version="1.0" xmlns="http://www.w3.org/2000/svg"
 width="1080.000000pt" height="1080.000000pt" viewBox="0 0 1080.000000 1080.000000"
 preserveAspectRatio="xMidYMid meet">

<g transform="translate(0.000000,1080.000000) scale(0.100000,-0.100000)"
fill="#000000" stroke="none">
<path d="M4540 5961 l0 -122 33 6 c51 9 159 -10 223 -41 74 -35 162 -122 195
-191 l24 -52 118 -1 c135 0 131 -5 91 98 -98 248 -317 406 -581 420 l-103 5 0
-122z"/>
<path d="M5400 5785 l0 -225 110 0 110 0 0 120 0 120 325 0 325 0 0 105 0 105
-435 0 -435 0 0 -225z"/>
<path d="M4520 5380 l0 -130 880 0 880 0 0 130 0 130 -880 0 -880 0 0 -130z"/>
<path d="M4944 5148 c-74 -100 -200 -160 -336 -162 l-68 -1 0 -112 0 -113 83
0 c168 0 325 67 448 189 69 69 136 168 154 229 6 22 6 22 -118 22 l-124 0 -39
-52z"/>
<path d="M5400 4960 l0 -240 110 0 110 0 0 240 0 240 -110 0 -110 0 0 -240z"/>
</g>
</svg>
